<?xml version="1.0" encoding="UTF-8" standalone="no"?>
<svg width="259px" height="65px" viewBox="0 0 259 65" version="1.1" xmlns="http://www.w3.org/2000/svg" xmlns:xlink="http://www.w3.org/1999/xlink">
    <!-- Generator: Sketch 3.8.3 (29802) - http://www.bohemiancoding.com/sketch -->
    <title>Logo</title>
    <desc>Created with Sketch.</desc>
    <defs>
        <linearGradient x1="50%" y1="100%" x2="50%" y2="3.061617e-15%" id="linearGradient-1">
            <stop stop-color="#1E88E5" offset="0%"></stop>
            <stop stop-color="#03A9F4" offset="100%"></stop>
        </linearGradient>
        <linearGradient x1="50%" y1="0%" x2="50%" y2="100%" id="linearGradient-2">
            <stop stop-color="#004379" offset="0%"></stop>
            <stop stop-color="#01579B" offset="100%"></stop>
        </linearGradient>
        <circle id="path-3" cx="32.5" cy="32.5" r="24.05"></circle>
    </defs>
    <g id="Page-1" stroke="none" stroke-width="1" fill="none" fill-rule="evenodd">
        <g id="Main-page" transform="translate(-182.000000, -163.000000)">
            <g id="Navigation-bar" transform="translate(149.000000, 151.000000)">
                <g id="Logo" transform="translate(33.000000, 12.000000)">
                    <g id="Logotype" transform="translate(85.000000, 0.000000)" fill="#FFFFFF">
                        <path d="M142.11241,46.3006222 C139.095983,48.7428738 136.177207,50.5373158 133.356,51.684 C130.462652,52.8600059 127.018687,53.448 123.024,53.448 C120.074652,53.448 117.90934,52.7200073 116.528,51.264 C115.710787,50.4220229 115.164615,49.3418742 114.889477,48.0235381 C114.111525,48.91461 113.263036,49.6774277 112.344,50.312 C110.029322,51.9173414 107.304016,52.72 104.168,52.72 C101.218652,52.72 99.0906733,52.1786721 97.7840001,51.096 C96.626661,50.162662 96.0480001,48.7813425 96.0480001,46.952 C96.0480001,44.9359899 96.8133258,42.490681 98.3440001,39.616 C99.5386727,37.3759888 100.994658,35.2106771 102.712,33.12 C102.114664,33.2693341 101.386671,33.344 100.528,33.344 C98.8479917,33.344 97.6720034,33.1573352 97.0000001,32.784 C95.7306604,37.4133565 93.9573448,41.4173164 91.6800001,44.796 C89.4026554,48.1746836 86.8826806,50.6106592 84.1200001,52.104 C83.5226638,52.6640028 82.869337,52.944 82.1600001,52.944 C81.4506632,52.944 80.8720023,52.7386687 80.4240001,52.328 C80.274153,52.1906402 80.1493666,52.0470161 80.0496407,51.8971272 C78.1778221,52.5203779 76.4039506,52.832 74.728,52.832 C72.0773201,52.832 70.0986732,52.2160062 68.792,50.984 C67.6719944,49.9386614 67.112,48.5013425 67.112,46.672 C67.112,46.5273231 67.1136588,46.394258 67.1169763,46.2728044 C65.3245843,48.0492181 63.237601,49.4889427 60.856,50.592 C58.0186525,51.8986732 55.1813475,52.552 52.344,52.552 C50.1786559,52.552 48.6200048,52.1320042 47.668,51.292 C46.7159953,50.4519958 46.24,49.2853408 46.24,47.792 C46.24,46.3359927 46.6506626,44.674676 47.472,42.808 C48.1440034,41.2773257 49.0959939,39.6346754 50.328,37.88 C48.461324,39.1493397 46.4826771,41.183986 44.392,43.984 C42.7493251,46.1866777 41.3866721,48.3519894 40.304,50.48 C39.0719939,52.5333436 37.560009,53.56 35.768,53.56 C32.9306525,53.56 31.512,52.6080095 31.512,50.704 C31.512,50.3679983 31.5679995,49.9760022 31.68,49.528 C33.0240067,45.5333134 34.4426592,41.9866822 35.936,38.888 C37.5786749,35.4906497 39.5759883,31.9813514 41.928,28.36 C42.3386687,27.8373307 43.0666615,27.3520022 44.112,26.904 C45.1573386,26.4559978 46.2773274,26.232 47.472,26.232 C49.3760095,26.232 50.7106629,26.4186648 51.476,26.792 C52.2413372,27.1653352 52.5306676,27.6693302 52.344,28.304 C51.0373268,29.6480067 49.7120067,31.3279899 48.368,33.344 C47.1733274,35.1733425 46.109338,37.0399905 45.176,38.944 C46.6693408,36.8906564 48.2933246,35.0240084 50.048,33.344 C51.9520095,31.477324 53.9493229,29.9093397 56.04,28.64 C57.1600056,27.9306631 58.0559967,27.576 58.728,27.576 C59.0266682,27.576 59.3813313,27.6226662 59.792,27.716 C60.2026687,27.8093338 60.6693307,27.893333 61.192,27.968 C61.7146693,28.042667 62.2746637,28.2013321 62.872,28.444 C63.4693363,28.6866679 63.9733313,28.9386654 64.384,29.2 C65.1306704,29.7226693 65.504,30.2826637 65.504,30.88 C65.504,31.5520034 65.0186715,32.3733285 64.048,33.344 C61.8079888,35.7333453 59.9040079,38.0386556 58.336,40.26 C56.7679922,42.4813444 55.6480034,44.562657 54.976,46.504 C54.8639995,46.8026682 54.808,47.0453324 54.808,47.232 C54.808,48.165338 55.4986598,48.632 56.88,48.632 C59.5306799,48.632 62.4239843,47.4746782 65.56,45.16 C66.2025553,44.6914701 66.8667068,44.1629438 67.552457,43.5744188 C68.0178118,41.6471732 68.8136559,39.3943782 69.94,36.816 C71.4893411,33.2693156 73.4399883,29.6853514 75.792,26.064 L67.672,25.56 C66.5519944,25.56 65.992,25.2986693 65.992,24.776 C65.992,24.1786637 66.6453268,23.7866676 67.952,23.6 C68.810671,23.525333 70.1826573,23.4133341 72.068,23.264 C73.9533428,23.1146659 75.829324,23.04 77.696,23.04 C78.6666716,21.4719922 79.4506637,20.2026715 80.048,19.232 C80.981338,17.8133262 81.7093308,16.7680034 82.232,16.096 C82.3813341,15.4986637 82.726664,15.0506682 83.268,14.752 C83.8093361,14.4533318 84.3973302,14.304 85.032,14.304 C85.2560012,14.304 85.5173319,14.341333 85.816,14.416 C87.5706755,14.6773346 89.1759928,15.0879972 90.632,15.648 C91.416004,15.8720011 91.808,16.3386631 91.808,17.048 C91.808,17.8320039 91.416004,18.6159961 90.632,19.4 L88.504,22.872 L94.664,23.096 C95.7767936,23.096 96.5440732,23.2471578 96.9658454,23.5494762 C97.0696143,23.5458254 97.1743325,23.544 97.2800001,23.544 C98.1760046,23.544 99.0533291,23.7026651 99.9120001,24.02 C100.770671,24.3373349 101.461331,24.7946637 101.984,25.392 C100.901328,25.9520028 100.36,26.7733279 100.36,27.856 C100.36,28.1920017 100.453332,28.5093318 100.64,28.808 C102.096007,28.0239961 103.887989,27.632 106.016,27.632 C106.538669,27.632 106.930665,27.6506665 107.192,27.688 C109.058676,27.688 110.570661,27.9866637 111.728,28.584 C112.698672,29.0693358 113.445331,29.7973285 113.968,30.768 C112.399992,32.2240073 110.477345,34.4826514 108.2,37.544 C105.101318,41.7253542 103.552,44.8239899 103.552,46.84 C103.552,47.6613374 103.813331,48.2959978 104.336,48.744 C104.858669,49.1920022 105.717327,49.416 106.912,49.416 C109.002677,49.416 110.971991,48.7440067 112.82,47.4 C113.447539,46.9436083 114.06754,46.4161878 114.680007,45.8177361 C114.683092,42.8346812 115.653747,39.4981357 117.592,35.808 C119.421343,32.3359826 121.399989,29.7413419 123.528,28.024 C124.312004,27.090662 125.198662,26.428002 126.188,26.036 C127.177338,25.643998 128.250661,25.448 129.408,25.448 C130.976008,25.448 132.711991,25.8026631 134.616,26.512 C135.848006,26.9600022 137.09866,27.5573296 138.368,28.304 C138.928003,28.7146687 139.329332,29.190664 139.572,29.732 C139.814668,30.273336 139.936,30.8986631 139.936,31.608 C139.936,34.5200146 137.994686,37.7866486 134.112,41.408 C130.229314,45.0293514 126.570684,47.0639978 123.136,47.512 C122.874665,48.0346693 122.744,48.4453318 122.744,48.744 C122.744,49.4160034 123.126663,49.8359992 123.892,50.004 C124.657337,50.1720008 125.562662,50.256 126.608,50.256 C129.632015,50.256 132.870649,49.4533414 136.324,47.848 C138.364667,46.8993657 140.317321,45.7291221 142.181981,44.3372556 C142.447678,41.742254 143.392346,38.8991884 145.016,35.808 C146.845343,32.3359826 148.823989,29.7413419 150.952,28.024 C151.736004,27.090662 152.622662,26.428002 153.612,26.036 C154.601338,25.643998 155.674661,25.448 156.832,25.448 C158.400008,25.448 160.135991,25.8026631 162.04,26.512 C163.272006,26.9600022 164.52266,27.5573296 165.792,28.304 C166.352003,28.7146687 166.753332,29.190664 166.996,29.732 C167.238668,30.273336 167.36,30.8986631 167.36,31.608 C167.36,34.5200146 165.418686,37.7866486 161.536,41.408 C157.653314,45.0293514 153.994684,47.0639978 150.56,47.512 C150.298665,48.0346693 150.168,48.4453318 150.168,48.744 C150.168,49.4160034 150.550663,49.8359992 151.316,50.004 C152.081337,50.1720008 152.986662,50.256 154.032,50.256 C157.056015,50.256 160.29465,49.4533414 163.748,47.848 C167.201351,46.2426586 170.402652,44.002681 173.352,41.128 C172.866664,42.0986715 172.381336,42.9573296 171.896,43.704 C171.223997,44.712005 170.514671,45.5146637 169.768,46.112 C166.669318,48.6506794 163.673348,50.5079941 160.78,51.684 C157.886652,52.8600059 154.442687,53.448 150.448,53.448 C147.498652,53.448 145.33334,52.7200073 143.952,51.264 C142.803107,50.0802924 142.189916,48.4258478 142.11241,46.3006222 Z M81.453877,49.0193005 C80.0791369,49.5077681 78.8265149,49.752 77.696,49.752 C75.5306559,49.752 74.448,48.9120084 74.448,47.232 C74.448,46.9333318 74.4666665,46.6906676 74.504,46.504 C74.7653347,45.1973268 76.1466542,42.4720207 78.648,38.328 C80.9626783,34.4826474 83.5759855,30.4506878 86.488,26.232 L86.712,26.232 C87.8320056,26.232 89.0079939,26.2040003 90.24,26.148 C90.864114,26.1196312 91.4882231,26.0840771 92.1123323,26.0413374 C91.7867759,26.7395615 91.6240001,27.4377756 91.6240001,28.136 C91.6240001,28.994671 91.8573311,29.7693299 92.3240001,30.46 C92.7906691,31.1506701 93.5093286,31.6079989 94.4800001,31.832 C93.5839956,35.3786844 91.8853459,38.747984 89.3840001,41.94 C87.1221832,44.8263485 84.4788308,47.1860965 81.453877,49.0193005 Z M40.488,15.872 C40.488,14.7893279 39.8906726,14.1733341 38.696,14.024 C37.5013274,13.8746659 35.5786799,13.762667 32.928,13.688 C30.2773201,13.613333 27.6640129,13.576 25.088,13.576 L20.328,13.576 C19.6186631,13.2773318 18.9466698,13.128 18.312,13.128 C17.6773302,13.128 17.126669,13.2679986 16.66,13.548 C16.193331,13.8280014 15.7546687,14.3226631 15.344,15.032 C13.9626598,18.5413509 12.5813402,22.0506491 11.2,25.56 C9.55732512,29.7413542 8.13867264,33.231986 6.944,36.032 C5.41332568,39.6533514 3.84534136,43.1626497 2.24,46.56 C1.79199776,47.568005 1.568,48.2586648 1.568,48.632 C1.568,49.0426687 1.91332988,49.6586626 2.604,50.48 C3.29467012,51.3013374 4.1999944,52.0106637 5.32,52.608 C6.4400056,53.2053363 7.44799552,53.504 8.344,53.504 C8.79200224,53.504 9.16533184,53.4106676 9.464,53.224 C14.1680235,52.4399961 17.6586553,51.9266679 19.936,51.684 C22.2133447,51.4413321 24.4159894,51.32 26.544,51.32 C27.2533369,51.245333 27.803998,51.0306684 28.196,50.676 C28.588002,50.3213316 28.784,49.9200022 28.784,49.472 C28.784,48.6506626 28.2613386,48.24 27.216,48.24 L23.688,48.24 C22.5306609,48.24 21.3920056,48.2213335 20.272,48.184 C18.3679905,48.184 16.8093394,48.2119997 15.596,48.268 C14.3826606,48.3240003 13.0666738,48.4266659 11.648,48.576 C13.1786743,44.8799815 14.8213246,41.1840185 16.576,37.488 C20.4960196,36.479995 24.6586446,35.976 29.064,35.976 C29.4000017,35.976 29.6613324,35.8266682 29.848,35.528 C30.0346676,35.2293318 30.090667,34.8933352 30.016,34.52 C29.8666659,33.9599972 29.362671,33.5493346 28.504,33.288 C27.645329,33.0266654 26.786671,32.896 25.928,32.896 C24.7333274,32.896 23.2680087,32.8680003 21.532,32.812 C19.7959913,32.7559997 18.9093335,32.728 18.872,32.728 C20.2160067,29.927986 21.4853274,27.4640106 22.68,25.336 C24.2480078,22.535986 25.7226598,20.202676 27.104,18.336 C29.0826766,18.0373318 30.967991,17.8320006 32.76,17.72 C34.552009,17.6079994 36.5866553,17.552 38.864,17.552 C39.3866693,17.552 39.7879986,17.3933349 40.068,17.076 C40.3480014,16.7586651 40.488,16.3573358 40.488,15.872 Z M142.792,13.184 C142.418665,13.8933369 141.205344,15.4426547 139.152,17.832 C136.986656,20.4080129 135.549337,21.8359986 134.84,22.116 C134.130663,22.3960014 133.40267,22.536 132.656,22.536 C131.797329,22.536 131.312001,22.3306687 131.2,21.92 C132.46934,19.3813206 133.645328,17.2440087 134.728,15.508 C135.810672,13.7719913 136.678663,12.7733346 137.332,12.512 C137.985337,12.2506654 138.666663,12.12 139.376,12.12 C140.272005,12.12 141.03733,12.2226656 141.672,12.428 C142.30667,12.6333344 142.68,12.8853318 142.792,13.184 Z M132.88,33.176 C133.029334,32.8773318 133.104,32.6160011 133.104,32.392 C133.104,32.1306654 132.992001,32 132.768,32 C132.431998,32 132.002669,32.1866648 131.48,32.56 C130.135993,33.7173391 128.624008,35.425322 126.944,37.684 C125.263992,39.942678 124.069337,41.8933251 123.36,43.536 C125.152009,42.5653285 126.953324,41.1000098 128.764,39.14 C130.574676,37.1799902 131.946662,35.1920101 132.88,33.176 Z M160.304,33.176 C159.370662,35.1920101 157.998676,37.1799902 156.188,39.14 C154.377324,41.1000098 152.576009,42.5653285 150.784,43.536 C151.493337,41.8933251 152.687992,39.942678 154.368,37.684 C156.048009,35.425322 157.559993,33.7173391 158.904,32.56 C159.426669,32.1866648 159.855998,32 160.192,32 C160.416001,32 160.528,32.1306654 160.528,32.392 C160.528,32.6160011 160.453334,32.8773318 160.304,33.176 Z" id="Entrée-(Script1)"></path>
                    </g>
                    <g id="Logo-image">
                        <path d="M19.5802677,62.3306571 C17.515544,64.0001351 14.8870375,65 12.025,65 C5.38377588,65 0,59.6162241 0,52.975 C0,50.1129625 0.999864924,47.484456 2.66934293,45.4197323 C0.951991278,41.459925 0,37.0911372 0,32.5 C0,14.5507456 14.5507456,0 32.5,0 C50.4492544,0 65,14.5507456 65,32.5 C65,50.4492544 50.4492544,65 32.5,65 C27.9088628,65 23.540075,64.0480087 19.5802677,62.3306571 Z" id="Base-circles" fill="url(#linearGradient-1)"></path>
                        <mask id="mask-4" fill="white">
                            <use xlink:href="#path-3"></use>
                        </mask>
                        <use id="Inner-circle" fill="url(#linearGradient-2)" xlink:href="#path-3"></use>
                        <path d="M41.0376025,19.3933985 C41.0376025,19.3933985 39.8897865,19.1535098 37.5251698,18.9901719 L37.5220544,33.1106675 C37.5238346,33.9010984 36.8873954,34.5375377 36.1054207,34.5344222 C35.3176602,34.5362025 34.6812209,33.8997632 34.6812209,33.1102225 L34.6830012,18.8566532 C34.10442,18.840631 33.4853382,18.8375155 32.8230853,18.8321748 C32.0891773,18.8317297 31.4180232,18.8459717 30.7922654,18.8602137 L30.7904852,32.985605 C30.78915,33.7729204 30.1562712,34.4057992 29.3720712,34.4040189 C28.5825305,34.4040189 27.9460912,33.7711402 27.9478715,32.9833797 L27.9478715,18.9986281 C25.6357722,19.161966 24.4812802,19.3880577 24.4812802,19.3880577 C24.4812802,19.3880577 23.8800009,30.5702512 23.8782206,36.9738094 C23.8782206,44.1224021 30.4095117,44.1691336 30.4081766,46.9841535 C30.4046161,49.789827 29.1842549,61.4486823 29.1873703,68.0307106 C29.1824746,80.0905671 30.7762432,80.3740719 32.7327376,80.3758521 C34.6936827,80.3794126 36.2807753,80.0927924 36.2807753,68.0307106 C36.2825555,61.453578 35.0635295,49.796948 35.0604141,46.9872689 C35.0604141,44.1744744 41.59037,44.2234313 41.5939305,36.9769248 C41.5952657,32.764409 41.0376025,19.3933985 41.0376025,19.3933985 L41.0376025,19.3933985 Z" id="Fork" fill="#FFFFFF" mask="url(#mask-4)"></path>
                    </g>
                </g>
            </g>
        </g>
    </g>
</svg>