<?xml version="1.0" encoding="UTF-8" standalone="no"?>
<svg width="237px" height="62px" viewBox="0 0 237 62" version="1.1" xmlns="http://www.w3.org/2000/svg" xmlns:xlink="http://www.w3.org/1999/xlink">
    <!-- Generator: Sketch 3.8.3 (29802) - http://www.bohemiancoding.com/sketch -->
    <title>Logo</title>
    <desc>Created with Sketch.</desc>
    <defs></defs>
    <g id="Page-1" stroke="none" stroke-width="1" fill="none" fill-rule="evenodd">
        <g id="Main-page" transform="translate(-1046.000000, -1314.000000)" fill="#FFFFFF">
            <g id="Footer" transform="translate(149.000000, 1298.000000)">
                <path d="M931.536878,77.8004428 C946.992177,76.0451038 959,62.9248406 959,47 C959,29.8791728 945.120827,16 928,16 C910.879173,16 897,29.8791728 897,47 C897,51.3792386 897.908053,55.54639 899.546142,59.323437 C897.953717,61.2928657 897,63.8000566 897,66.53 C897,72.8647061 902.135294,78 908.47,78 C911.199943,78 913.707134,77.0462827 915.676563,75.4538575 C918.553391,76.7015255 921.656528,77.52568 924.907318,77.8476624 C925.154681,71.5231278 926.001826,63.0981061 926.004722,60.8156541 C926.005996,58.1305582 919.776149,58.0859835 919.776149,51.2673259 C919.777847,45.1593165 920.351375,34.4932243 920.351375,34.4932243 C920.351375,34.4932243 921.452583,34.2775676 923.65797,34.1217684 L923.65797,47.4610698 C923.656272,48.2124722 924.263337,48.8161411 925.016437,48.8161411 C925.764443,48.8178392 926.368112,48.2141702 926.369386,47.4631924 L926.371084,33.9897423 C926.967961,33.9761576 927.608138,33.962573 928.308174,33.9629975 C928.939861,33.9680917 929.53037,33.9710634 930.082247,33.9863461 L930.080549,47.5820584 C930.080549,48.3351588 930.687614,48.9422239 931.439017,48.9405258 C932.1849,48.9434975 932.791965,48.3364323 932.790267,47.5824829 L932.793239,34.1137025 C935.048719,34.2695017 936.143559,34.4983186 936.143559,34.4983186 C936.143559,34.4983186 936.675484,47.2522055 936.674211,51.2702975 C936.670814,58.1823498 930.442241,58.1356525 930.442241,60.8186257 C930.444769,63.0984228 931.286568,71.4847462 931.536878,77.8004428 Z M1104.10454,58.7495787 C1101.29926,61.0208726 1098.5848,62.6897037 1095.96108,63.75612 C1093.27027,64.8498055 1090.06738,65.39664 1086.35232,65.39664 C1083.60943,65.39664 1081.59569,64.7196068 1080.31104,63.36552 C1079.55103,62.5824813 1079.04309,61.577943 1078.78721,60.3518904 C1078.06372,61.1805873 1077.27462,61.8900078 1076.41992,62.48016 C1074.26727,63.9731275 1071.73273,64.7196 1068.81624,64.7196 C1066.07335,64.7196 1064.09433,64.216165 1062.87912,63.20928 C1061.80279,62.3412757 1061.26464,61.0566485 1061.26464,59.35536 C1061.26464,57.4804706 1061.97639,55.2063334 1063.39992,52.53288 C1064.51097,50.4496696 1065.86503,48.4359297 1067.46216,46.4916 C1066.90664,46.6304807 1066.2296,46.69992 1065.43104,46.69992 C1063.86863,46.69992 1062.77496,46.5263217 1062.15,46.17912 C1060.96951,50.4844215 1059.32033,54.2081043 1057.2024,57.35028 C1055.08447,60.4924557 1052.74089,62.7579131 1050.1716,64.14672 C1049.61608,64.6675226 1049.00848,64.92792 1048.3488,64.92792 C1047.68912,64.92792 1047.15096,64.7369619 1046.73432,64.35504 C1046.59496,64.2272954 1046.47891,64.093725 1046.38617,63.9543283 C1044.64537,64.5339514 1042.99567,64.82376 1041.43704,64.82376 C1038.97191,64.82376 1037.13177,64.2508857 1035.91656,63.10512 C1034.87495,62.1329551 1034.35416,60.7962485 1034.35416,59.09496 C1034.35416,58.9604105 1034.3557,58.83666 1034.35879,58.7237081 C1032.69186,60.3757728 1030.75097,61.7147167 1028.53608,62.74056 C1025.89735,63.9557661 1023.25865,64.56336 1020.61992,64.56336 C1018.60615,64.56336 1017.1566,64.1727639 1016.27124,63.39156 C1015.38588,62.6103561 1014.9432,61.5253669 1014.9432,60.13656 C1014.9432,58.7824732 1015.32512,57.2374487 1016.08896,55.50144 C1016.71392,54.0779129 1017.59927,52.5502482 1018.74504,50.9184 C1017.00903,52.0988859 1015.16889,53.991107 1013.22456,56.59512 C1011.69687,58.6436102 1010.42961,60.6573501 1009.42272,62.6364 C1008.27695,64.5460095 1006.87081,65.5008 1005.20424,65.5008 C1002.56551,65.5008 1001.24616,64.6154489 1001.24616,62.84472 C1001.24616,62.5322384 1001.29824,62.1676821 1001.4024,61.75104 C1002.65233,58.0359814 1003.97167,54.7376144 1005.36048,51.85584 C1006.88817,48.6963042 1008.74567,45.4326568 1010.93304,42.0648 C1011.31496,41.5787176 1011.992,41.1273621 1012.96416,40.71072 C1013.93632,40.2940779 1014.97791,40.08576 1016.08896,40.08576 C1017.85969,40.08576 1019.10092,40.2593583 1019.81268,40.60656 C1020.52444,40.9537617 1020.79352,41.422477 1020.61992,42.01272 C1019.40471,43.2626462 1018.17217,44.8250306 1016.92224,46.69992 C1015.81119,48.4012085 1014.82168,50.1371911 1013.95368,51.90792 C1015.34249,49.9983105 1016.85279,48.2623278 1018.48464,46.69992 C1020.25537,44.9639113 1022.11287,43.5056859 1024.0572,42.3252 C1025.09881,41.6655167 1025.93208,41.33568 1026.55704,41.33568 C1026.8348,41.33568 1027.16464,41.3790796 1027.54656,41.46588 C1027.92848,41.5526804 1028.36248,41.6307997 1028.84856,41.70024 C1029.33464,41.7696803 1029.85544,41.9172389 1030.41096,42.14292 C1030.96648,42.3686011 1031.4352,42.6029588 1031.81712,42.846 C1032.51152,43.3320824 1032.85872,43.8528772 1032.85872,44.4084 C1032.85872,45.0333631 1032.40736,45.7971955 1031.50464,46.69992 C1029.42143,48.9220111 1027.65073,51.0659497 1026.19248,53.1318 C1024.73423,55.1976503 1023.69264,57.133271 1023.06768,58.93872 C1022.96352,59.2164814 1022.91144,59.4421591 1022.91144,59.61576 C1022.91144,60.4837643 1023.55375,60.91776 1024.8384,60.91776 C1027.30353,60.91776 1029.99431,59.8414508 1032.9108,57.6888 C1033.50838,57.2530672 1034.12604,56.7615378 1034.76379,56.2142095 C1035.19656,54.4218711 1035.9367,52.3267718 1036.9842,49.92888 C1038.42509,46.6304635 1040.23919,43.2973768 1042.42656,39.92952 L1034.87496,39.4608 C1033.83335,39.4608 1033.31256,39.2177624 1033.31256,38.73168 C1033.31256,38.1761572 1033.92015,37.8116009 1035.13536,37.638 C1035.93392,37.5685597 1037.20987,37.4644007 1038.96324,37.32552 C1040.71661,37.1866393 1042.46127,37.1172 1044.19728,37.1172 C1045.1,35.6589527 1045.82912,34.4784845 1046.38464,33.57576 C1047.25264,32.2563934 1047.92968,31.2842431 1048.41576,30.65928 C1048.55464,30.1037572 1048.8758,29.6871214 1049.37924,29.40936 C1049.88268,29.1315986 1050.42952,28.99272 1051.01976,28.99272 C1051.22808,28.99272 1051.47112,29.0274397 1051.74888,29.09688 C1053.38073,29.3399212 1054.87367,29.7218374 1056.22776,30.24264 C1056.95688,30.450961 1057.32144,30.8849567 1057.32144,31.54464 C1057.32144,32.2737636 1056.95688,33.0028764 1056.22776,33.732 L1054.24872,36.96096 L1059.97752,37.16928 C1061.01242,37.16928 1061.72599,37.3098568 1062.11824,37.5910129 C1062.21474,37.5876176 1062.31213,37.58592 1062.4104,37.58592 C1063.24368,37.58592 1064.0596,37.7334785 1064.85816,38.0286 C1065.65672,38.3237215 1066.29904,38.7490372 1066.78512,39.30456 C1065.77824,39.8253626 1065.2748,40.589195 1065.2748,41.59608 C1065.2748,41.9085616 1065.3616,42.2036786 1065.5352,42.48144 C1066.88929,41.7523164 1068.55583,41.38776 1070.53488,41.38776 C1071.02096,41.38776 1071.38552,41.4051198 1071.62856,41.43984 C1073.36457,41.43984 1074.77071,41.7175972 1075.84704,42.27312 C1076.74976,42.7244823 1077.44416,43.4015155 1077.93024,44.30424 C1076.47199,45.6583268 1074.68393,47.7588658 1072.566,50.60592 C1069.68423,54.4945794 1068.24336,57.3763106 1068.24336,59.2512 C1068.24336,60.0150438 1068.4864,60.6052779 1068.97248,61.02192 C1069.45856,61.4385621 1070.25711,61.64688 1071.36816,61.64688 C1073.31249,61.64688 1075.14395,61.0219262 1076.8626,59.772 C1077.44621,59.3475557 1078.02281,58.8570546 1078.59241,58.3004946 C1078.59528,55.5262535 1079.49798,52.4232662 1081.30056,48.99144 C1083.00185,45.7624639 1084.84199,43.349448 1086.82104,41.75232 C1087.55016,40.8843157 1088.37476,40.2680418 1089.29484,39.90348 C1090.21492,39.5389182 1091.21311,39.35664 1092.28944,39.35664 C1093.74769,39.35664 1095.36215,39.6864767 1097.13288,40.34616 C1098.27865,40.7628021 1099.44175,41.3183165 1100.62224,42.01272 C1101.14304,42.3946419 1101.51628,42.8373175 1101.74196,43.34076 C1101.96764,43.8442025 1102.08048,44.4257567 1102.08048,45.08544 C1102.08048,47.7936135 1100.27506,50.8315832 1096.66416,54.19944 C1093.05326,57.5672968 1089.65074,59.4595179 1086.45648,59.87616 C1086.21344,60.3622424 1086.09192,60.7441586 1086.09192,61.02192 C1086.09192,61.6468831 1086.4478,62.0374792 1087.15956,62.19372 C1087.87132,62.3499608 1088.71328,62.42808 1089.68544,62.42808 C1092.49777,62.42808 1095.5097,61.6816075 1098.72132,60.18864 C1100.61914,59.3064101 1102.43511,58.2180836 1104.16924,56.9236477 C1104.41634,54.5102962 1105.29488,51.8662452 1106.80488,48.99144 C1108.50617,45.7624639 1110.34631,43.349448 1112.32536,41.75232 C1113.05448,40.8843157 1113.87908,40.2680418 1114.79916,39.90348 C1115.71924,39.5389182 1116.71743,39.35664 1117.79376,39.35664 C1119.25201,39.35664 1120.86647,39.6864767 1122.6372,40.34616 C1123.78297,40.7628021 1124.94607,41.3183165 1126.12656,42.01272 C1126.64736,42.3946419 1127.0206,42.8373175 1127.24628,43.34076 C1127.47196,43.8442025 1127.5848,44.4257567 1127.5848,45.08544 C1127.5848,47.7936135 1125.77938,50.8315832 1122.16848,54.19944 C1118.55758,57.5672968 1115.15506,59.4595179 1111.9608,59.87616 C1111.71776,60.3622424 1111.59624,60.7441586 1111.59624,61.02192 C1111.59624,61.6468831 1111.95212,62.0374792 1112.66388,62.19372 C1113.37564,62.3499608 1114.2176,62.42808 1115.18976,62.42808 C1118.00209,62.42808 1121.01402,61.6816075 1124.22564,60.18864 C1127.43726,58.6956725 1130.41447,56.6124934 1133.15736,53.93904 C1132.706,54.8417645 1132.25464,55.6403165 1131.80328,56.33472 C1131.17832,57.2721647 1130.51864,58.0186372 1129.82424,58.57416 C1126.94247,60.9351318 1124.15621,62.6624345 1121.4654,63.75612 C1118.77459,64.8498055 1115.5717,65.39664 1111.85664,65.39664 C1109.11375,65.39664 1107.10001,64.7196068 1105.81536,63.36552 C1104.74689,62.2646719 1104.17662,60.7260385 1104.10454,58.7495787 Z M1047.69211,61.2779495 C1046.4136,61.7322244 1045.24866,61.95936 1044.19728,61.95936 C1042.18351,61.95936 1041.17664,61.1781678 1041.17664,59.61576 C1041.17664,59.3379986 1041.194,59.1123209 1041.22872,58.93872 C1041.47176,57.7235139 1042.75639,55.1889793 1045.08264,51.33504 C1047.23529,47.7588621 1049.66567,44.0091396 1052.37384,40.08576 L1052.58216,40.08576 C1053.62377,40.08576 1054.71743,40.0597203 1055.8632,40.00764 C1056.44363,39.981257 1057.02405,39.9481917 1057.60447,39.9084438 C1057.3017,40.5577922 1057.15032,41.2071313 1057.15032,41.85648 C1057.15032,42.655044 1057.36732,43.3754768 1057.80132,44.0178 C1058.23532,44.6601232 1058.90368,45.085439 1059.8064,45.29376 C1058.97312,48.5921765 1057.39337,51.7256252 1055.06712,54.6942 C1052.96363,57.3785041 1050.50531,59.5730697 1047.69211,61.2779495 Z M1009.59384,30.45096 C1009.59384,29.444075 1009.03833,28.8712007 1007.92728,28.73232 C1006.81623,28.5934393 1005.02817,28.4892803 1002.56304,28.41984 C1000.09791,28.3503997 997.667532,28.31568 995.27184,28.31568 L990.84504,28.31568 C990.185357,28.0379186 989.560403,27.89904 988.97016,27.89904 C988.379917,27.89904 987.867802,28.0292387 987.4338,28.28964 C986.999798,28.5500413 986.591842,29.0100767 986.20992,29.66976 C984.925274,32.9334563 983.640646,36.1971037 982.356,39.4608 C980.828312,43.3494594 979.508966,46.595747 978.39792,49.19976 C976.974393,52.5676168 975.516167,55.8312642 974.0232,58.9908 C973.606558,59.9282447 973.39824,60.5705583 973.39824,60.91776 C973.39824,61.2996819 973.719397,61.8725562 974.36172,62.6364 C975.004043,63.4002438 975.845995,64.0599172 976.8876,64.61544 C977.929205,65.1709628 978.866636,65.44872 979.69992,65.44872 C980.116562,65.44872 980.463759,65.3619209 980.74152,65.18832 C985.116262,64.4591964 988.362549,63.9818011 990.48048,63.75612 C992.598411,63.5304389 994.64687,63.4176 996.62592,63.4176 C997.285603,63.3481597 997.797718,63.1485216 998.16228,62.81868 C998.526842,62.4888384 998.70912,62.1156021 998.70912,61.69896 C998.70912,60.9351162 998.223045,60.5532 997.25088,60.5532 L993.96984,60.5532 C992.893515,60.5532 991.834565,60.5358402 990.79296,60.50112 C989.022231,60.50112 987.572686,60.5271597 986.44428,60.57924 C985.315874,60.6313203 984.092007,60.7267993 982.77264,60.86568 C984.196167,57.4283828 985.723832,53.9911372 987.35568,50.55384 C991.001298,49.6163953 994.87254,49.14768 998.96952,49.14768 C999.282002,49.14768 999.525039,49.0088014 999.69864,48.73104 C999.872241,48.4532786 999.92432,48.1408017 999.85488,47.7936 C999.715999,47.2727974 999.247284,46.8908812 998.44872,46.64784 C997.650156,46.4047988 996.851604,46.28328 996.05304,46.28328 C994.941994,46.28328 993.579248,46.2572403 991.96476,46.20516 C990.350272,46.1530797 989.52568,46.12704 989.49096,46.12704 C990.740886,43.523027 991.921354,41.2315299 993.0324,39.25248 C994.490647,36.648467 995.862074,34.4784887 997.14672,32.74248 C998.986889,32.4647186 1000.74023,32.2737605 1002.4068,32.1696 C1004.07337,32.0654395 1005.96559,32.01336 1008.08352,32.01336 C1008.5696,32.01336 1008.94284,31.8658015 1009.20324,31.57068 C1009.46364,31.2755585 1009.59384,30.9023223 1009.59384,30.45096 Z M1104.73656,27.95112 C1104.38936,28.6108033 1103.26097,30.0516689 1101.35136,32.27376 C1099.33759,34.669452 1098.00088,35.9974787 1097.3412,36.25788 C1096.68152,36.5182813 1096.00448,36.64848 1095.31008,36.64848 C1094.51152,36.64848 1094.06016,36.4575219 1093.956,36.0756 C1095.13649,33.7146282 1096.23016,31.7269281 1097.23704,30.11244 C1098.24393,28.4979519 1099.05116,27.5692012 1099.65876,27.32616 C1100.26636,27.0831188 1100.9,26.9616 1101.55968,26.9616 C1102.39296,26.9616 1103.10472,27.057079 1103.69496,27.24804 C1104.2852,27.439001 1104.6324,27.6733586 1104.73656,27.95112 Z M1095.5184,46.54368 C1095.65728,46.2659186 1095.72672,46.022881 1095.72672,45.81456 C1095.72672,45.5715188 1095.62256,45.45 1095.41424,45.45 C1095.10176,45.45 1094.70248,45.6235983 1094.2164,45.9708 C1092.96647,47.0471254 1091.56033,48.6355495 1089.99792,50.73612 C1088.43551,52.8366905 1087.32448,54.6507924 1086.6648,56.17848 C1088.33137,55.2757555 1090.00659,53.9130091 1091.69052,52.0902 C1093.37445,50.2673909 1094.6504,48.4185694 1095.5184,46.54368 Z M1121.02272,46.54368 C1120.15472,48.4185694 1118.87877,50.2673909 1117.19484,52.0902 C1115.51091,53.9130091 1113.83569,55.2757555 1112.16912,56.17848 C1112.8288,54.6507924 1113.93983,52.8366905 1115.50224,50.73612 C1117.06465,48.6355495 1118.47079,47.0471254 1119.72072,45.9708 C1120.2068,45.6235983 1120.60608,45.45 1120.91856,45.45 C1121.12688,45.45 1121.23104,45.5715188 1121.23104,45.81456 C1121.23104,46.022881 1121.1616,46.2659186 1121.02272,46.54368 Z" id="Logo"></path>
            </g>
        </g>
    </g>
</svg>