<?xml version="1.0" encoding="UTF-8" standalone="no"?>
<svg width="41px" height="34px" viewBox="0 0 41 34" version="1.1" xmlns="http://www.w3.org/2000/svg" xmlns:xlink="http://www.w3.org/1999/xlink">
    <!-- Generator: Sketch 3.8.3 (29802) - http://www.bohemiancoding.com/sketch -->
    <title>Twitter</title>
    <desc>Created with Sketch.</desc>
    <defs></defs>
    <g id="Page-1" stroke="none" stroke-width="1" fill="none" fill-rule="evenodd">
        <g id="Main-page" transform="translate(-1791.000000, -1328.000000)" fill="#FFFFFF">
            <g id="Footer" transform="translate(149.000000, 1298.000000)">
                <g id="Social-widgets" transform="translate(1495.000000, 28.000000)">
                    <path d="M187.5,6.2281804 C186.00986,6.8978444 184.408466,7.35044179 182.727669,7.55399802 C184.443279,6.51189817 185.760688,4.86183167 186.381098,2.89577263 C184.775705,3.86056315 182.997432,4.561301 181.104795,4.93899089 C179.589027,3.30258488 177.42959,2.28 175.039795,2.28 C170.450861,2.28 166.730473,6.04984352 166.730473,10.6996625 C166.730473,11.359569 166.804099,12.0022122 166.94572,12.6184352 C160.040025,12.2673157 153.917546,8.91524284 149.819401,3.82123296 C149.104181,5.06478745 148.694426,6.51114759 148.694426,8.05418194 C148.694426,10.975274 150.161456,13.5524521 152.390963,15.062311 C151.028816,15.0186275 149.747701,14.6398868 148.627318,14.0092527 C148.626726,14.0443797 148.626726,14.0796568 148.626726,14.1150839 C148.626726,18.1946152 151.490865,21.5977272 155.291989,22.3711208 C154.594694,22.5635685 153.860661,22.6663975 153.102776,22.6663975 C152.567398,22.6663975 152.046834,22.613707 151.539603,22.5153815 C152.596878,25.8605491 155.66545,28.2948175 159.301399,28.3628197 C156.457703,30.621003 152.874937,31.9670861 148.982113,31.9670861 C148.311484,31.9670861 147.650038,31.9273056 147,31.8495459 C150.677132,34.2384795 155.044744,35.6322994 159.737079,35.6322994 C175.020388,35.6322994 183.377856,22.8024018 183.377856,11.6760119 C183.377856,11.3109316 183.369856,10.9478029 183.353857,10.5867758 C184.977175,9.39966465 186.385987,7.9166764 187.5,6.2281804" id="Twitter"></path>
                </g>
            </g>
        </g>
    </g>
</svg>