<?xml version="1.0" encoding="UTF-8" standalone="no"?>
<svg width="38px" height="38px" viewBox="0 0 38 38" version="1.1" xmlns="http://www.w3.org/2000/svg" xmlns:xlink="http://www.w3.org/1999/xlink">
    <!-- Generator: Sketch 3.8.3 (29802) - http://www.bohemiancoding.com/sketch -->
    <title>Facebook</title>
    <desc>Created with Sketch.</desc>
    <defs></defs>
    <g id="Page-1" stroke="none" stroke-width="1" fill="none" fill-rule="evenodd">
        <g id="Main-page" transform="translate(-1644.000000, -1326.000000)" fill="#FFFFFF">
            <g id="Footer" transform="translate(149.000000, 1298.000000)">
                <g id="Social-widgets" transform="translate(1495.000000, 28.000000)">
                    <path d="M35.4302254,0 L2.06963413,0 C0.926487945,0 0,0.938841117 0,2.09722925 L0,35.9026284 C0,37.0608741 0.926487945,38 2.06963413,38 L20.0299275,38 L20.0299275,23.2843703 L15.1428933,23.2843703 L15.1428933,17.5493808 L20.0299275,17.5493808 L20.0299275,13.3200397 C20.0299275,8.41198224 22.9881133,5.73940314 27.3089136,5.73940314 C29.3786882,5.73940314 31.1574777,5.89544952 31.6757995,5.96521478 L31.6757995,11.0945278 L28.6791154,11.0959516 C26.3293149,11.0959516 25.8742202,12.2274303 25.8742202,13.8878435 L25.8742202,17.5493808 L31.4785309,17.5493808 L30.74889,23.2843703 L25.8742202,23.2843703 L25.8742202,38 L35.4302254,38 C36.573231,38 37.4998595,37.0608741 37.4998595,35.9026284 L37.4998595,2.09722925 C37.4998595,0.938841117 36.573231,0 35.4302254,0" id="Facebook"></path>
                </g>
            </g>
        </g>
    </g>
</svg>