<?xml version="1.0" encoding="UTF-8" standalone="no"?>
<svg width="38px" height="38px" viewBox="0 0 38 38" version="1.1" xmlns="http://www.w3.org/2000/svg" xmlns:xlink="http://www.w3.org/1999/xlink">
    <!-- Generator: Sketch 3.8.3 (29802) - http://www.bohemiancoding.com/sketch -->
    <title>Instagram</title>
    <desc>Created with Sketch.</desc>
    <defs></defs>
    <g id="Page-1" stroke="none" stroke-width="1" fill="none" fill-rule="evenodd">
        <g id="Main-page" transform="translate(-1867.000000, -1326.000000)" fill="#FFFFFF">
            <g id="Footer" transform="translate(149.000000, 1298.000000)">
                <g id="Social-widgets" transform="translate(1495.000000, 28.000000)">
                    <path d="M242.000038,0 C236.83991,0 236.192876,0.0218719795 234.166324,0.114337658 C232.143996,0.206577075 230.762818,0.52779349 229.554278,0.997513104 C228.30486,1.48299563 227.245276,2.13266884 226.188935,3.1889346 C225.132669,4.24527579 224.482996,5.30486006 223.997513,6.55427804 C223.527793,7.76281803 223.206577,9.14399582 223.114338,11.1663243 C223.021872,13.1928763 223,13.8399098 223,19.0000377 C223,24.1600902 223.021872,24.8071237 223.114338,26.8336757 C223.206577,28.8560042 223.527793,30.237182 223.997513,31.445722 C224.482996,32.6951399 225.132669,33.7547242 226.188935,34.8110654 C227.245276,35.8673312 228.30486,36.5170044 229.554278,37.0025623 C230.762818,37.4722065 232.143996,37.7934229 234.166324,37.8856623 C236.192876,37.978128 236.83991,38 242.000038,38 C247.16009,38 247.807124,37.978128 249.833676,37.8856623 C251.856004,37.7934229 253.237182,37.4722065 254.445722,37.0025623 C255.69514,36.5170044 256.754724,35.8673312 257.811065,34.8110654 C258.867331,33.7547242 259.517004,32.6951399 260.002562,31.445722 C260.472207,30.237182 260.793423,28.8560042 260.885662,26.8336757 C260.978128,24.8071237 261,24.1600902 261,19.0000377 C261,13.8399098 260.978128,13.1928763 260.885662,11.1663243 C260.793423,9.14399582 260.472207,7.76281803 260.002562,6.55427804 C259.517004,5.30486006 258.867331,4.24527579 257.811065,3.1889346 C256.754724,2.13266884 255.69514,1.48299563 254.445722,0.997513104 C253.237182,0.52779349 251.856004,0.206577075 249.833676,0.114337658 C247.807124,0.0218719795 247.16009,0 242.000038,0 Z M242.000038,3.42341731 C247.073206,3.42341731 247.674157,3.44280041 249.67763,3.5342102 C251.530112,3.61868129 252.536147,3.92820751 253.205656,4.18840864 C254.092527,4.53308087 254.725457,4.94480203 255.39029,5.60971021 C256.055198,6.27454296 256.466919,6.90747279 256.811591,7.79434385 C257.071792,8.46385268 257.381319,9.46988832 257.46579,11.3223696 C257.5572,13.3258429 257.576583,13.9267944 257.576583,19.0000377 C257.576583,24.0732056 257.5572,24.6741571 257.46579,26.6776304 C257.381319,28.5301117 257.071792,29.5361473 256.811591,30.2056561 C256.466919,31.0925272 256.055198,31.725457 255.39029,32.3902898 C254.725457,33.055198 254.092527,33.4669191 253.205656,33.8115914 C252.536147,34.0717925 251.530112,34.3813187 249.67763,34.4657898 C247.674459,34.5571996 247.073583,34.5765827 242.000038,34.5765827 C236.926417,34.5765827 236.325617,34.5571996 234.32237,34.4657898 C232.469888,34.3813187 231.463853,34.0717925 230.794344,33.8115914 C229.907473,33.4669191 229.274543,33.055198 228.60971,32.3902898 C227.944877,31.725457 227.533081,31.0925272 227.188409,30.2056561 C226.928208,29.5361473 226.618681,28.5301117 226.53421,26.6776304 C226.4428,24.6741571 226.423417,24.0732056 226.423417,19.0000377 C226.423417,13.9267944 226.4428,13.3258429 226.53421,11.3223696 C226.618681,9.46988832 226.928208,8.46385268 227.188409,7.79434385 C227.533081,6.90747279 227.944802,6.27454296 228.60971,5.60971021 C229.274543,4.94480203 229.907473,4.53308087 230.794344,4.18840864 C231.463853,3.92820751 232.469888,3.61868129 234.32237,3.5342102 C236.325843,3.44280041 236.926794,3.42341731 242.000038,3.42341731 Z M242.000038,9.24324936 C236.611461,9.24324936 232.243249,13.6114608 232.243249,19.0000377 C232.243249,24.3885392 236.611461,28.7567506 242.000038,28.7567506 C247.388539,28.7567506 251.756751,24.3885392 251.756751,19.0000377 C251.756751,13.6114608 247.388539,9.24324936 242.000038,9.24324936 Z M242.000038,25.3333333 C238.50218,25.3333333 235.666667,22.4978197 235.666667,19.0000377 C235.666667,15.5021803 238.50218,12.6666667 242.000038,12.6666667 C245.49782,12.6666667 248.333333,15.5021803 248.333333,19.0000377 C248.333333,22.4978197 245.49782,25.3333333 242.000038,25.3333333 Z M254.422266,8.85777458 C254.422266,10.1169972 253.401448,11.1377399 252.142225,11.1377399 C250.883078,11.1377399 249.86226,10.1169972 249.86226,8.85777458 C249.86226,7.59855192 250.883078,6.57773385 252.142225,6.57773385 C253.401448,6.57773385 254.422266,7.59855192 254.422266,8.85777458 Z" id="Instagram"></path>
                </g>
            </g>
        </g>
    </g>
</svg>