<?xml version="1.0" encoding="UTF-8" standalone="no"?>
<svg width="38px" height="38px" viewBox="0 0 38 38" version="1.1" xmlns="http://www.w3.org/2000/svg" xmlns:xlink="http://www.w3.org/1999/xlink">
    <!-- Generator: Sketch 3.8.3 (29802) - http://www.bohemiancoding.com/sketch -->
    <title>Messenger</title>
    <desc>Created with Sketch.</desc>
    <defs></defs>
    <g id="Page-1" stroke="none" stroke-width="1" fill="none" fill-rule="evenodd">
        <g id="Main-page" transform="translate(-1717.000000, -1326.000000)" fill="#FFFFFF">
            <g id="Footer" transform="translate(149.000000, 1298.000000)">
                <g id="Social-widgets" transform="translate(1495.000000, 28.000000)">
                    <path d="M93.613354,23.691358 L88.8385093,18.5308642 L79.5217391,23.691358 L89.7701863,12.6666667 L94.6614907,17.8271605 L103.861801,12.6666667 L93.613354,23.691358 Z M91.75,0 C81.3946429,0 73,7.87643827 73,17.5925926 C73,23.1289815 75.7265528,28.0673395 79.9875776,31.292179 L79.9875776,38 L86.371778,34.449463 C88.0755823,34.9272778 89.8805901,35.1851852 91.75,35.1851852 C102.105357,35.1851852 110.5,27.3087469 110.5,17.5925926 C110.5,7.87643827 102.105357,0 91.75,0 L91.75,0 Z" id="Messenger"></path>
                </g>
            </g>
        </g>
    </g>
</svg>